<svg xmlns="http://www.w3.org/2000/svg" viewBox="0 0 24 24" fill="none">
  <path d="M19.88 12.88C19.55 12.23 18.99 11.66 18.28 11.23C17.29 10.66 16.11 10.33 14.88 10.14V6.5C14.88 5.12 13.76 4 12.38 4H11.62C10.24 4 9.12 5.12 9.12 6.5V10.14C7.89 10.33 6.71 10.66 5.72 11.23C5.01 11.66 4.45 12.23 4.12 12.88C3.62 13.83 3.49 15.06 3.79 16.5C4.1 17.94 4.81 19.11 5.81 19.78C6.81 20.45 8.02 20.8 9.3 20.94V21H14.7V20.94C15.98 20.8 17.19 20.45 18.19 19.78C19.19 19.11 19.9 17.94 20.21 16.5C20.51 15.06 20.38 13.83 19.88 12.88Z" stroke="#0d9488" stroke-width="1.5" stroke-linecap="round" stroke-linejoin="round"/>
  <path d="M9.12 6.5H14.88" stroke="#0d9488" stroke-width="1.5" stroke-linecap="round" stroke-linejoin="round"/>
</svg>
